<?xml version="1.0" encoding="utf-8"?>
<svg viewBox="0 0 259 281" xmlns="http://www.w3.org/2000/svg">
  <circle style="" cx="126.283" cy="133.299" r="113.933"/>
  <g transform="matrix(0.101854, 0, 0, -0.101577, -0.738507, 283.215546)" fill="#000000" stroke="none" style="">
    <path d="M 1133.126 2770.842 C 1012.724 2756.938 898.198 2727.584 873.237 2705.951 C 862.957 2696.682 854.148 2693.592 854.148 2699.772 C 854.148 2710.587 736.683 2664.235 710.254 2641.061 C 698.507 2633.335 676.483 2622.519 658.864 2620.975 C 641.245 2617.885 623.624 2610.159 619.217 2603.981 C 614.814 2596.256 575.169 2562.264 531.12 2528.276 C 278.571 2335.145 99.439 2040.047 39.238 1721.771 C 8.401 1564.177 15.743 1270.624 53.921 1125.392 C 125.867 844.198 299.127 575.363 513.5 410.046 C 610.409 334.34 810.1 218.462 855.617 210.739 C 867.364 209.193 917.284 195.289 965.739 182.929 C 1012.724 169.023 1125.785 153.571 1213.883 148.938 C 1303.452 144.303 1384.209 133.486 1394.485 124.217 C 1406.233 114.947 1412.107 114.947 1412.107 128.853 C 1412.107 141.212 1425.32 144.303 1450.282 138.121 C 1478.181 130.397 1485.521 131.942 1476.712 145.848 C 1469.369 159.752 1473.773 161.298 1489.925 155.118 C 1503.141 150.483 1514.886 152.027 1517.823 158.208 C 1520.762 164.389 1576.556 184.473 1644.097 203.012 C 1710.172 221.554 1790.929 253.997 1823.231 275.629 C 1855.535 297.261 1887.839 314.254 1895.179 314.254 C 1902.521 314.254 1918.674 323.526 1928.948 334.34 C 1978.874 385.324 2078.718 451.761 2091.932 442.491 C 2100.743 437.857 2102.212 439.401 2097.805 448.673 C 2093.401 456.397 2112.489 487.298 2140.387 516.653 C 2276.941 654.16 2387.062 841.108 2456.074 1055.865 C 2498.653 1187.195 2504.529 1224.274 2510.401 1418.947 C 2514.805 1601.261 2511.869 1655.334 2485.439 1766.577 C 2445.795 1934.984 2344.482 2152.834 2241.699 2288.795 C 2124.236 2441.753 1898.117 2627.155 1790.929 2654.966 C 1767.437 2661.147 1749.817 2671.959 1749.817 2679.686 C 1749.817 2687.411 1745.411 2692.045 1739.539 2690.502 C 1732.198 2688.955 1682.274 2702.862 1626.479 2721.401 C 1539.849 2750.758 1294.64 2790.927 1243.25 2783.203 C 1235.908 2783.203 1185.985 2777.024 1133.126 2770.842 Z M 1667.592 2352.141 C 1721.92 2307.335 1718.982 2250.17 1661.719 2223.904 L 1617.669 2205.365 L 1694.021 2151.288 C 1833.511 2055.497 1867.282 1951.981 1815.89 1772.757 C 1789.462 1676.967 1680.807 1462.207 1630.884 1406.587 C 1616.201 1389.591 1600.049 1361.782 1594.175 1346.33 C 1589.771 1330.882 1580.962 1318.521 1573.618 1318.521 C 1566.278 1318.521 1525.166 1275.259 1482.583 1221.183 C 1404.765 1125.392 1356.31 1017.241 1301.982 819.479 C 1277.022 728.32 1205.075 623.259 1168.366 623.259 C 1140.468 623.259 1141.935 660.341 1169.833 685.062 C 1183.048 697.422 1191.859 729.867 1191.859 770.037 C 1191.859 822.566 1199.199 841.108 1227.099 859.648 C 1256.465 881.28 1263.806 901.364 1272.615 1004.881 C 1284.363 1143.932 1328.413 1259.808 1409.169 1363.325 C 1511.952 1493.109 1544.253 1554.907 1544.253 1619.8 C 1545.72 1712.5 1567.746 1794.388 1607.391 1854.643 C 1652.909 1921.079 1644.097 1979.79 1575.089 2052.409 C 1492.863 2142.017 1234.439 2260.985 1122.85 2260.985 C 1097.888 2260.985 1058.242 2268.709 1034.75 2279.525 C 995.107 2296.52 998.043 2298.065 1089.076 2310.423 C 1187.454 2324.329 1291.704 2310.423 1432.663 2267.167 C 1535.443 2236.264 1545.72 2237.81 1529.571 2282.616 C 1513.42 2328.967 1547.188 2384.587 1594.175 2384.587 C 1613.265 2384.587 1645.566 2370.681 1667.592 2352.141 Z M 1347.501 2146.654 C 1448.815 2089.487 1475.244 2052.409 1482.583 1961.251 C 1489.925 1867.004 1478.181 1797.477 1456.155 1797.477 C 1447.346 1797.477 1413.573 1816.017 1381.271 1837.65 C 1319.604 1877.818 1318.133 1865.458 1373.928 1799.022 L 1404.765 1761.941 L 1338.69 1772.757 C 1260.87 1785.116 1168.366 1846.919 1139 1907.174 C 1118.443 1951.981 1111.103 2086.398 1128.723 2151.288 C 1137.53 2185.28 1141.935 2186.822 1221.226 2179.097 C 1266.742 2176.01 1324.007 2160.558 1347.501 2146.654 Z M 948.121 2087.942 C 974.551 2077.127 989.232 2053.95 995.107 2018.417 C 1005.384 1959.704 995.107 1936.529 968.675 1964.34 C 943.716 1990.606 920.223 1987.515 942.248 1959.704 C 958.398 1939.621 953.993 1936.529 923.159 1936.529 C 870.301 1936.529 824.781 1992.149 824.781 2055.497 C 824.781 2101.848 829.187 2106.483 868.83 2106.483 C 892.323 2106.483 927.564 2098.757 948.121 2087.942 Z M 1163.96 1782.027 C 1225.631 1715.591 1219.759 1689.327 1146.342 1689.327 L 1086.141 1689.327 L 1119.913 1658.427 L 1155.152 1629.07 L 1080.267 1627.526 C 1018.598 1627.526 999.511 1633.706 967.21 1670.785 C 945.184 1693.961 924.628 1735.675 918.756 1761.941 C 911.412 1803.658 914.348 1811.382 951.058 1826.833 C 1021.536 1854.643 1116.977 1834.559 1163.96 1782.027 Z M 873.237 1687.78 C 933.436 1653.792 945.184 1613.62 895.26 1610.53 C 870.301 1608.984 867.364 1607.441 887.919 1601.261 C 946.652 1585.809 901.131 1550.274 820.376 1550.274 C 767.52 1550.274 758.708 1556.454 708.785 1616.71 C 673.547 1658.427 673.547 1658.427 701.445 1681.601 C 735.215 1707.867 829.187 1710.956 873.237 1687.78 Z M 1390.08 1608.984 C 1428.257 1590.445 1440.004 1565.724 1409.169 1565.724 C 1395.955 1565.724 1395.955 1561.089 1410.636 1551.818 C 1441.471 1530.189 1419.445 1493.109 1368.056 1480.748 C 1332.817 1473.023 1310.79 1479.203 1272.615 1507.012 C 1212.416 1548.727 1209.478 1570.358 1253.528 1602.804 C 1293.172 1632.16 1338.69 1633.706 1390.08 1608.984 Z M 1162.493 1496.199 L 1199.199 1476.113 L 1158.088 1465.297 C 1109.632 1451.392 1115.507 1442.122 1180.113 1428.216 L 1228.568 1417.403 L 1181.581 1367.962 C 1144.874 1329.335 1122.85 1318.521 1077.331 1318.521 C 1014.194 1318.521 883.514 1369.505 883.514 1394.227 C 883.514 1401.952 905.539 1434.397 933.436 1463.754 C 977.486 1513.195 990.701 1519.373 1053.838 1519.373 C 1093.482 1517.828 1141.935 1508.559 1162.493 1496.199 Z M 821.846 1333.97 C 864.427 1292.255 862.957 1272.168 817.44 1272.168 C 796.885 1272.168 780.732 1265.99 780.732 1256.719 C 780.732 1242.812 801.29 1235.088 829.187 1239.725 C 835.06 1239.725 839.465 1235.088 839.465 1225.819 C 839.465 1218.093 808.629 1210.368 771.923 1210.368 C 717.595 1210.368 697.037 1218.093 660.331 1256.719 C 617.752 1303.069 616.281 1306.162 641.245 1333.97 C 677.952 1377.233 779.264 1375.685 821.846 1333.97 Z M 1133.126 1241.268 C 1133.126 1233.545 1118.443 1218.093 1100.825 1208.823 C 1064.115 1187.195 989.232 1117.667 1003.915 1117.667 C 1009.788 1117.667 1052.371 1137.753 1097.888 1164.018 C 1143.405 1188.737 1187.454 1205.733 1194.797 1201.097 C 1216.82 1185.648 1206.543 1094.491 1172.771 1024.966 C 1133.126 943.08 1072.926 906.001 937.842 882.823 C 873.237 872.009 835.06 872.009 805.693 884.369 C 768.987 899.819 766.051 906.001 773.389 958.53 C 786.605 1043.505 813.036 1133.118 826.25 1133.118 C 832.123 1133.118 840.932 1147.023 846.807 1162.474 C 851.212 1177.925 865.895 1194.918 880.577 1199.554 C 893.794 1204.188 931.968 1219.64 964.27 1232 C 1030.346 1258.264 1133.126 1264.444 1133.126 1241.268 Z M 1080.267 845.745 C 1100.825 838.018 1100.825 833.383 1078.8 799.394 C 1065.585 777.761 1062.648 762.311 1071.459 762.311 C 1080.267 762.311 1094.952 774.672 1102.294 790.121 C 1115.507 813.296 1116.977 811.753 1118.443 779.309 C 1118.443 719.051 1064.115 669.611 998.043 669.611 C 943.716 669.611 942.248 671.156 942.248 723.686 C 942.248 810.207 1012.724 873.553 1080.267 845.745 Z" style="fill-rule: evenodd; paint-order: stroke; fill: rgb(255, 245, 60);"/>
  </g>
</svg>