<?xml version="1.0" encoding="utf-8"?>
<svg viewBox="17 84 358 76" xmlns="http://www.w3.org/2000/svg" xmlns:bx="https://boxy-svg.com">
  <defs>
    <filter id="inner-shadow-filter-0" x="-500%" y="-500%" width="1000%" height="1000%" bx:preset="inner-shadow 1 0 0 3 0.5 rgba(0,0,0,0.87)">
      <feOffset dx="0" dy="0"/>
      <feGaussianBlur stdDeviation="3"/>
      <feComposite operator="out" in="SourceGraphic"/>
      <feComponentTransfer result="choke">
        <feFuncA type="linear" slope="1"/>
      </feComponentTransfer>
      <feFlood flood-color="rgba(0,0,0,0.87)" result="color"/>
      <feComposite operator="in" in="color" in2="choke" result="shadow"/>
      <feComposite operator="over" in="shadow" in2="SourceGraphic"/>
    </filter>
    <filter id="drop-shadow-filter-0" x="-500%" y="-500%" width="1000%" height="1000%" bx:preset="drop-shadow 1 10 10 0 0.5 rgba(0,0,0,0.3)">
      <feGaussianBlur in="SourceAlpha" stdDeviation="0"/>
      <feOffset dx="10" dy="10"/>
      <feComponentTransfer result="offsetblur">
        <feFuncA id="spread-ctrl" type="linear" slope="1"/>
      </feComponentTransfer>
      <feFlood flood-color="rgba(0,0,0,0.3)"/>
      <feComposite in2="offsetblur" operator="in"/>
      <feMerge>
        <feMergeNode/>
        <feMergeNode in="SourceGraphic"/>
      </feMerge>
    </filter>
    <filter id="outline-filter-0" x="-500%" y="-500%" width="1000%" height="1000%" bx:preset="outline 1 0.1 rgba(0,0,0,1)">
      <feMorphology in="SourceAlpha" result="dilated" operator="dilate" radius="0.1"/>
      <feFlood flood-color="rgba(0,0,0,1)" result="flood"/>
      <feComposite in="flood" in2="dilated" operator="in" result="outline"/>
      <feMerge>
        <feMergeNode in="outline"/>
        <feMergeNode in="SourceGraphic"/>
      </feMerge>
    </filter>
  </defs>
  <circle style="" cx="126.283" cy="133.299" r="113.933" transform="matrix(0.290253, 0, 0, 0.265811, 19.524883, 85.2798)"/>
  <g transform="matrix(0.029991, 0, 0, -0.027671, 27.428284, 201.105576)" fill="#000000" stroke="none" style="filter: url(#inner-shadow-filter-0);">
    <path d="M 803.218 4164.125 C 682.816 4150.221 568.29 4120.867 543.329 4099.234 C 533.049 4089.965 524.24 4086.875 524.24 4093.055 C 524.24 4103.87 406.775 4057.518 380.346 4034.344 C 368.599 4026.618 346.575 4015.802 328.956 4014.258 C 311.337 4011.168 293.716 4003.442 289.309 3997.264 C 284.906 3989.539 245.261 3955.547 201.212 3921.559 C -51.337 3728.428 -230.469 3433.33 -290.67 3115.054 C -321.507 2957.46 -314.165 2663.907 -275.987 2518.675 C -204.041 2237.481 -30.781 1968.646 183.592 1803.329 C 280.501 1727.623 480.192 1611.745 525.709 1604.022 C 537.456 1602.476 587.376 1588.572 635.831 1576.212 C 682.816 1562.306 795.877 1546.854 883.975 1542.221 C 973.544 1537.586 1054.301 1526.769 1064.577 1517.5 C 1076.325 1508.23 1082.199 1508.23 1082.199 1522.136 C 1082.199 1534.495 1095.412 1537.586 1120.374 1531.404 C 1148.273 1523.68 1155.613 1525.225 1146.804 1539.131 C 1139.461 1553.035 1143.865 1554.581 1160.017 1548.401 C 1173.233 1543.766 1184.978 1545.31 1187.915 1551.491 C 1190.854 1557.672 1246.648 1577.756 1314.189 1596.295 C 1380.264 1614.837 1461.021 1647.28 1493.323 1668.912 C 1525.627 1690.544 1557.931 1707.537 1565.271 1707.537 C 1572.613 1707.537 1588.766 1716.809 1599.04 1727.623 C 1648.966 1778.607 1748.81 1845.044 1762.024 1835.774 C 1770.835 1831.14 1772.304 1832.684 1767.897 1841.956 C 1763.493 1849.68 1782.581 1880.581 1810.479 1909.936 C 1947.033 2047.443 2057.154 2234.391 2126.166 2449.148 C 2168.745 2580.478 2174.621 2617.557 2180.493 2812.23 C 2184.897 2994.544 2181.961 3048.617 2155.531 3159.86 C 2115.887 3328.267 2014.574 3546.117 1911.791 3682.078 C 1794.328 3835.036 1568.209 4020.438 1461.021 4048.249 C 1437.529 4054.43 1419.909 4065.242 1419.909 4072.969 C 1419.909 4080.694 1415.503 4085.328 1409.631 4083.785 C 1402.29 4082.238 1352.366 4096.145 1296.571 4114.684 C 1209.941 4144.041 964.732 4184.21 913.342 4176.486 C 906 4176.486 856.077 4170.307 803.218 4164.125 Z M 1337.684 3745.424 C 1392.012 3700.618 1389.074 3643.453 1331.811 3617.187 L 1287.761 3598.648 L 1364.113 3544.571 C 1503.603 3448.78 1537.374 3345.264 1485.982 3166.04 C 1459.554 3070.25 1350.899 2855.49 1300.976 2799.87 C 1286.293 2782.874 1270.141 2755.065 1264.267 2739.613 C 1259.863 2724.165 1251.054 2711.804 1243.71 2711.804 C 1236.37 2711.804 1195.258 2668.542 1152.675 2614.466 C 1074.857 2518.675 1026.402 2410.524 972.074 2212.762 C 947.114 2121.603 875.167 2016.542 838.458 2016.542 C 810.56 2016.542 812.027 2053.624 839.925 2078.345 C 853.14 2090.705 861.951 2123.15 861.951 2163.32 C 861.951 2215.849 869.291 2234.391 897.191 2252.931 C 926.557 2274.563 933.898 2294.647 942.707 2398.164 C 954.455 2537.215 998.505 2653.091 1079.261 2756.608 C 1182.044 2886.392 1214.345 2948.19 1214.345 3013.083 C 1215.812 3105.783 1237.838 3187.671 1277.483 3247.926 C 1323.001 3314.362 1314.189 3373.073 1245.181 3445.692 C 1162.955 3535.3 904.531 3654.268 792.942 3654.268 C 767.98 3654.268 728.334 3661.992 704.842 3672.808 C 665.199 3689.803 668.135 3691.348 759.168 3703.706 C 857.546 3717.612 961.796 3703.706 1102.755 3660.45 C 1205.535 3629.547 1215.812 3631.093 1199.663 3675.899 C 1183.512 3722.25 1217.28 3777.87 1264.267 3777.87 C 1283.357 3777.87 1315.658 3763.964 1337.684 3745.424 Z M 1017.593 3539.937 C 1118.907 3482.77 1145.336 3445.692 1152.675 3354.534 C 1160.017 3260.287 1148.273 3190.76 1126.247 3190.76 C 1117.438 3190.76 1083.665 3209.3 1051.363 3230.933 C 989.696 3271.101 988.225 3258.741 1044.02 3192.305 L 1074.857 3155.224 L 1008.782 3166.04 C 930.962 3178.399 838.458 3240.202 809.092 3300.457 C 788.535 3345.264 781.195 3479.681 798.815 3544.571 C 807.622 3578.563 812.027 3580.105 891.318 3572.38 C 936.834 3569.293 994.099 3553.841 1017.593 3539.937 Z M 618.213 3481.225 C 644.643 3470.41 659.324 3447.233 665.199 3411.7 C 675.476 3352.987 665.199 3329.812 638.767 3357.623 C 613.808 3383.889 590.315 3380.798 612.34 3352.987 C 628.49 3332.904 624.085 3329.812 593.251 3329.812 C 540.393 3329.812 494.873 3385.432 494.873 3448.78 C 494.873 3495.131 499.279 3499.766 538.922 3499.766 C 562.415 3499.766 597.656 3492.04 618.213 3481.225 Z M 834.052 3175.31 C 895.723 3108.874 889.851 3082.61 816.434 3082.61 L 756.233 3082.61 L 790.005 3051.71 L 825.244 3022.353 L 750.359 3020.809 C 688.69 3020.809 669.603 3026.989 637.302 3064.068 C 615.276 3087.244 594.72 3128.958 588.848 3155.224 C 581.504 3196.941 584.44 3204.665 621.15 3220.116 C 691.628 3247.926 787.069 3227.842 834.052 3175.31 Z M 543.329 3081.063 C 603.528 3047.075 615.276 3006.903 565.352 3003.813 C 540.393 3002.267 537.456 3000.724 558.011 2994.544 C 616.744 2979.092 571.223 2943.557 490.468 2943.557 C 437.612 2943.557 428.8 2949.737 378.877 3009.993 C 343.639 3051.71 343.639 3051.71 371.537 3074.884 C 405.307 3101.15 499.279 3104.239 543.329 3081.063 Z M 1060.172 3002.267 C 1098.349 2983.728 1110.096 2959.007 1079.261 2959.007 C 1066.047 2959.007 1066.047 2954.372 1080.728 2945.101 C 1111.563 2923.472 1089.537 2886.392 1038.148 2874.031 C 1002.909 2866.306 980.882 2872.486 942.707 2900.295 C 882.508 2942.01 879.57 2963.641 923.62 2996.087 C 963.264 3025.443 1008.782 3026.989 1060.172 3002.267 Z M 832.585 2889.482 L 869.291 2869.396 L 828.18 2858.58 C 779.724 2844.675 785.599 2835.405 850.205 2821.499 L 898.66 2810.686 L 851.673 2761.245 C 814.966 2722.618 792.942 2711.804 747.423 2711.804 C 684.286 2711.804 553.606 2762.788 553.606 2787.51 C 553.606 2795.235 575.631 2827.68 603.528 2857.037 C 647.578 2906.478 660.793 2912.656 723.93 2912.656 C 763.574 2911.111 812.027 2901.842 832.585 2889.482 Z M 491.938 2727.253 C 534.519 2685.538 533.049 2665.451 487.532 2665.451 C 466.977 2665.451 450.824 2659.273 450.824 2650.002 C 450.824 2636.095 471.382 2628.371 499.279 2633.008 C 505.152 2633.008 509.557 2628.371 509.557 2619.102 C 509.557 2611.376 478.721 2603.651 442.015 2603.651 C 387.687 2603.651 367.129 2611.376 330.423 2650.002 C 287.844 2696.352 286.373 2699.445 311.337 2727.253 C 348.044 2770.516 449.356 2768.968 491.938 2727.253 Z M 803.218 2634.551 C 803.218 2626.828 788.535 2611.376 770.917 2602.106 C 734.207 2580.478 659.324 2510.95 674.007 2510.95 C 679.88 2510.95 722.463 2531.036 767.98 2557.301 C 813.497 2582.02 857.546 2599.016 864.889 2594.38 C 886.912 2578.931 876.635 2487.774 842.863 2418.249 C 803.218 2336.363 743.018 2299.284 607.934 2276.106 C 543.329 2265.292 505.152 2265.292 475.785 2277.652 C 439.079 2293.102 436.143 2299.284 443.481 2351.813 C 456.697 2436.788 483.128 2526.401 496.342 2526.401 C 502.215 2526.401 511.024 2540.306 516.899 2555.757 C 521.304 2571.208 535.987 2588.201 550.669 2592.837 C 563.886 2597.471 602.06 2612.923 634.362 2625.283 C 700.438 2651.547 803.218 2657.727 803.218 2634.551 Z M 750.359 2239.028 C 770.917 2231.301 770.917 2226.666 748.892 2192.677 C 735.677 2171.044 732.74 2155.594 741.551 2155.594 C 750.359 2155.594 765.044 2167.955 772.386 2183.404 C 785.599 2206.579 787.069 2205.036 788.535 2172.592 C 788.535 2112.334 734.207 2062.894 668.135 2062.894 C 613.808 2062.894 612.34 2064.439 612.34 2116.969 C 612.34 2203.49 682.816 2266.836 750.359 2239.028 Z" style="fill-rule: evenodd; paint-order: stroke; stroke-miterlimit: 1; stroke-linecap: square; stroke-linejoin: round; stroke-width: 659.013px; filter: url(#drop-shadow-filter-0); fill: rgb(87, 203, 204);"/>
  </g>
  <text style="fill: rgb(255, 255, 255); font-family: Arial, sans-serif; font-size: 52.1px; letter-spacing: -0.3px; text-transform: capitalize; word-spacing: -9.1px; white-space: pre; filter: url(#outline-filter-0);" x="101.537" y="139.709">Fitness Vibe</text>
</svg>